#N canvas -9 -9 1920 976 10;
#X obj 674 515 send toSystem;
#X msg 674 485 list /enableLocation 1;
#X obj 674 457 loadbang;
#X obj 312 61 receive fromSystem;
#X obj 313 117 route /location /compass;
#X obj 312 88 list trim;
#X obj 29 136 receive fromGUI;
#X obj 35 534 send toNetwork;
#X obj 30 167 list trim;
#X obj 426 352 send toNetwork;
#X floatatom 391 265 5 0 0 0 - - -;
#X text 435 320 send message straight to multicast on user-specified
port;
#X msg 427 297 list /compass \$1;
#X obj 574 284 send toGUI;
#X floatatom 542 80 5 0 0 0 - - -;
#X obj 562 155 / 360;
#X floatatom 602 99 5 0 0 0 - - -;
#X obj 848 92 receive fromSystem;
#X obj 847 154 route /tilts /accel /gyro /motion /accelFrequency /gyroFrequency
/motionFrequency;
#X text 844 200 custom abstraction to slow down message rate to GUI
;
#X text 1058 131 last few return the current update freq;
#X obj 847 121 list trim;
#X obj 1002 339 send toNetwork;
#X obj 856 431 send toGUI;
#X obj 834 527 send toSystem;
#X msg 835 480 list /setAccelFrequency 100 \, list /setGyroFrequency
100 \, list /setMotionFrequency 100;
#X msg 575 256 list /compassView \$1 \$2;
#X obj 659 80 * 6.28319;
#X obj 660 106 t f f;
#X floatatom 735 231 0 0 0 0 - - -;
#X obj 660 135 sin;
#X floatatom 660 236 0 0 0 0 - - -;
#X obj 732 127 cos;
#X obj 574 230 pack;
#X text 44 413 comment;
#X msg 26 278 list /topSlider \$1;
#X msg 59 310 list /leftSlider \$1;
#X msg 78 337 list /rightSlider \$1;
#X msg 103 364 list /leftKnob \$1;
#X msg 124 393 list /rightKnob \$1;
#X msg 174 280 list /Button1 \$1;
#X msg 201 309 list /Button2 \$1;
#X msg 220 336 list /Button3 \$1;
#X msg 245 363 list /Button4 \$1;
#X msg 266 392 list /Button5 \$1;
#X obj 660 187 + 1;
#X obj 660 213 / 2;
#X obj 855 222 unpack;
#X obj 732 202 / 2;
#X obj 731 178 + 1;
#X obj 717 153 * 0.9;
#X obj 661 159 * 0.9;
#X obj 856 274 / 2;
#X obj 855 250 + 1;
#X obj 891 274 / 2;
#X obj 890 250 + 1;
#X obj 859 362 pack;
#X msg 228 438 list /Toggle1 \$1;
#X msg 254 467 list /Toggle2 \$1;
#X msg 274 494 list /Toggle3 \$1;
#X msg 299 521 list /Toggle4 \$1;
#X msg 358 434 list /XYSliderL \$1 \$2;
#X msg 384 463 list /XYSliderR \$1 \$2;
#X msg 858 396 list /tiltView \$2 \$1;
#X obj 918 348 -;
#X obj 913 301 t b f;
#X msg 906 323 1;
#X obj 29 195 route /topSlider /leftSlider /rightSlider /leftKnob /rightKnob
/Button1 /Button2 /Button3 /Button4 /Button5 /Toggle1 /Toggle2 /Toggle3
/Toggle4 /XYSliderL /XYSliderR;
#X obj 1122 335 send toNetwork;
#X msg 1007 286 list /tilt \$1 \$2;
#X obj 1266 330 send toNetwork;
#X msg 1121 288 list /accel \$1 \$2 \$3;
#X msg 1266 286 list /gyro \$1 \$2 \$3;
#X obj 1395 330 send toNetwork;
#X msg 1395 286 list /motion \$1 \$2 \$3;
#X connect 1 0 0 0;
#X connect 2 0 1 0;
#X connect 2 0 25 0;
#X connect 3 0 5 0;
#X connect 4 1 10 0;
#X connect 4 1 15 0;
#X connect 5 0 4 0;
#X connect 6 0 8 0;
#X connect 8 0 67 0;
#X connect 10 0 12 0;
#X connect 12 0 9 0;
#X connect 14 0 15 0;
#X connect 15 0 16 0;
#X connect 15 0 27 0;
#X connect 17 0 21 0;
#X connect 18 0 69 0;
#X connect 18 0 47 0;
#X connect 18 1 71 0;
#X connect 18 2 72 0;
#X connect 18 3 74 0;
#X connect 21 0 18 0;
#X connect 25 0 24 0;
#X connect 26 0 13 0;
#X connect 27 0 28 0;
#X connect 28 0 30 0;
#X connect 28 1 32 0;
#X connect 29 0 33 1;
#X connect 30 0 51 0;
#X connect 31 0 33 0;
#X connect 32 0 50 0;
#X connect 33 0 26 0;
#X connect 35 0 7 0;
#X connect 36 0 7 0;
#X connect 37 0 7 0;
#X connect 38 0 7 0;
#X connect 39 0 7 0;
#X connect 40 0 7 0;
#X connect 41 0 7 0;
#X connect 42 0 7 0;
#X connect 43 0 7 0;
#X connect 44 0 7 0;
#X connect 45 0 46 0;
#X connect 46 0 31 0;
#X connect 47 0 53 0;
#X connect 47 1 55 0;
#X connect 48 0 29 0;
#X connect 49 0 48 0;
#X connect 50 0 49 0;
#X connect 51 0 45 0;
#X connect 52 0 56 0;
#X connect 53 0 52 0;
#X connect 54 0 65 0;
#X connect 55 0 54 0;
#X connect 56 0 63 0;
#X connect 57 0 7 0;
#X connect 58 0 7 0;
#X connect 59 0 7 0;
#X connect 60 0 7 0;
#X connect 61 0 7 0;
#X connect 62 0 7 0;
#X connect 63 0 23 0;
#X connect 64 0 56 1;
#X connect 65 0 66 0;
#X connect 65 1 64 1;
#X connect 66 0 64 0;
#X connect 67 0 35 0;
#X connect 67 1 36 0;
#X connect 67 2 37 0;
#X connect 67 3 38 0;
#X connect 67 4 39 0;
#X connect 67 5 40 0;
#X connect 67 6 41 0;
#X connect 67 7 42 0;
#X connect 67 8 43 0;
#X connect 67 9 44 0;
#X connect 67 10 57 0;
#X connect 67 11 58 0;
#X connect 67 12 59 0;
#X connect 67 13 60 0;
#X connect 67 14 61 0;
#X connect 67 15 62 0;
#X connect 69 0 22 0;
#X connect 71 0 68 0;
#X connect 72 0 70 0;
#X connect 74 0 73 0;
